<?xml version="1.0" encoding="iso-8859-1"?>
<svg xmlns="http://www.w3.org/2000/svg" xmlns:xlink="http://www.w3.org/1999/xlink" version="1.1" id="Capa_1" x="0px" y="0px" viewBox="0 0 30.599 30.599" style="enable-background:new 0 0 30.599 30.599;" xml:space="preserve" width="512px" height="512px">
<g>
	<g>
		<path d="M26.006,30.599c-0.191,0-0.381-0.063-0.538-0.185L6.971,15.986    c-0.213-0.166-0.338-0.421-0.338-0.689c0.001-0.269,0.125-0.523,0.338-0.689L25.467,0.186c0.265-0.207,0.623-0.244,0.922-0.097    c0.3,0.147,0.491,0.452,0.491,0.786v28.849c0,0.335-0.191,0.64-0.491,0.786C26.267,30.57,26.136,30.599,26.006,30.599z     M8.93,15.296l16.2,12.637V2.665L8.93,15.296z" fill="#FFFFFF"/>
	</g>
	<g>
		<path d="M4.593,30.599c-0.483,0-0.875-0.392-0.875-0.875V0.875C3.718,0.392,4.11,0,4.593,0    s0.875,0.392,0.875,0.875v28.849C5.468,30.207,5.077,30.599,4.593,30.599z" fill="#FFFFFF"/>
	</g>
</g>
<g>
</g>
<g>
</g>
<g>
</g>
<g>
</g>
<g>
</g>
<g>
</g>
<g>
</g>
<g>
</g>
<g>
</g>
<g>
</g>
<g>
</g>
<g>
</g>
<g>
</g>
<g>
</g>
<g>
</g>
</svg>
